# xmcd CD database file
#
# Track frame offsets:
#	150
#	13825
#	30930
#	54180
#	69454
#	85840
#	103142
#	120565
#	135075
#	151165
#	163974
#	180891
#	197912
#	208681
#
# Disc length: 2995 seconds
#
# Revision: 0
# Processed by: cddbd v1.5.2PL0 Copyright (c) Steve Scherf et al.
# Submitted via: CDex 1.51
#
DISCID=ab0bb10e
DTITLE=John Arthur Martinez - Rodeo Night
DYEAR=2007
DGENRE=Country
TTITLE0=Rio Grande Rodeo Night
TTITLE1=It Takes A Part Of My Heart Away
TTITLE2=What Good Is I Love You
TTITLE3=When You Say Nothing At All
TTITLE4=Boys With Guitars
TTITLE5=I Watched You Break My Heart
TTITLE6=All Hat, No Cattle
TTITLE7=A Real Good Year For Beer
TTITLE8=You Could've Heard A Teardrop
TTITLE9=Front Porch Swing
TTITLE10=Saturday Night In A Redneck Town
TTITLE11=That's My Baby
TTITLE12=Cherry Springs Swing
TTITLE13=The Little Engineer
EXTD=YEAR: 2007
EXTT0=
EXTT1=
EXTT2=
EXTT3=
EXTT4=
EXTT5=
EXTT6=
EXTT7=
EXTT8=
EXTT9=
EXTT10=
EXTT11=
EXTT12=
EXTT13=
PLAYORDER=
